<svg width="40" height="40" viewBox="0 0 40 40" fill="none" xmlns="http://www.w3.org/2000/svg">
<rect width="40" height="40" rx="20" fill="#FF3E79"/>
<path fill-rule="evenodd" clip-rule="evenodd" d="M28 11H12C10.9 11 10.01 11.9 10.01 13L10 31L14 26H28C29.1 26 30 25.1 30 24V13C30 11.9 29.1 11 28 11ZM21 22H15C14.45 22 14 21.55 14 21C14 20.45 14.45 20 15 20H21C21.55 20 22 20.45 22 21C22 21.55 21.55 22 21 22ZM25 17H15C14.45 17 14 16.55 14 16C14 15.45 14.45 15 15 15H25C25.55 15 26 15.45 26 16C26 16.55 25.55 17 25 17Z" fill="white"/>
<mask id="mask0_0_1880" style="mask-type:alpha" maskUnits="userSpaceOnUse" x="9" y="10" width="22" height="23">
<path fill-rule="evenodd" clip-rule="evenodd" d="M28 11H12C10.9 11 10.01 11.9 10.01 13L10 31L14 26H28C29.1 26 30 25.1 30 24V13C30 11.9 29.1 11 28 11ZM21 22H15C14.45 22 14 21.55 14 21C14 20.45 14.45 20 15 20H21C21.55 20 22 20.45 22 21C22 21.55 21.55 22 21 22ZM25 17H15C14.45 17 14 16.55 14 16C14 15.45 14.45 15 15 15H25C25.55 15 26 15.45 26 16C26 16.55 25.55 17 25 17Z" fill="white"/>
<path d="M10.01 13L10.51 13.0003V13H10.01ZM10 31L9.5 30.9997L9.49921 32.4264L10.3904 31.3123L10 31ZM14 26V25.5H13.7597L13.6096 25.6877L14 26ZM28 10.5H12V11.5H28V10.5ZM12 10.5C10.6206 10.5 9.51 11.6271 9.51 13H10.51C10.51 12.1729 11.1794 11.5 12 11.5V10.5ZM9.51 12.9997L9.5 30.9997L10.5 31.0003L10.51 13.0003L9.51 12.9997ZM10.3904 31.3123L14.3904 26.3123L13.6096 25.6877L9.60957 30.6877L10.3904 31.3123ZM14 26.5H28V25.5H14V26.5ZM28 26.5C29.3761 26.5 30.5 25.3761 30.5 24H29.5C29.5 24.8239 28.8239 25.5 28 25.5V26.5ZM30.5 24V13H29.5V24H30.5ZM30.5 13C30.5 11.6239 29.3761 10.5 28 10.5V11.5C28.8239 11.5 29.5 12.1761 29.5 13H30.5ZM21 21.5H15V22.5H21V21.5ZM15 21.5C14.7261 21.5 14.5 21.2739 14.5 21H13.5C13.5 21.8261 14.1739 22.5 15 22.5V21.5ZM14.5 21C14.5 20.7261 14.7261 20.5 15 20.5V19.5C14.1739 19.5 13.5 20.1739 13.5 21H14.5ZM15 20.5H21V19.5H15V20.5ZM21 20.5C21.2739 20.5 21.5 20.7261 21.5 21H22.5C22.5 20.1739 21.8261 19.5 21 19.5V20.5ZM21.5 21C21.5 21.2739 21.2739 21.5 21 21.5V22.5C21.8261 22.5 22.5 21.8261 22.5 21H21.5ZM25 16.5H15V17.5H25V16.5ZM15 16.5C14.7261 16.5 14.5 16.2739 14.5 16H13.5C13.5 16.8261 14.1739 17.5 15 17.5V16.5ZM14.5 16C14.5 15.7261 14.7261 15.5 15 15.5V14.5C14.1739 14.5 13.5 15.1739 13.5 16H14.5ZM15 15.5H25V14.5H15V15.5ZM25 15.5C25.2739 15.5 25.5 15.7261 25.5 16H26.5C26.5 15.1739 25.8261 14.5 25 14.5V15.5ZM25.5 16C25.5 16.2739 25.2739 16.5 25 16.5V17.5C25.8261 17.5 26.5 16.8261 26.5 16H25.5Z" fill="white"/>
</mask>
<g mask="url(#mask0_0_1880)">
</g>
</svg>
